<svg width="115" height="20" viewBox="0 0 115 20" fill="none" xmlns="http://www.w3.org/2000/svg">
<g clip-path="url(#clip0_65_2)">
<mask id="mask0_65_2" style="mask-type:luminance" maskUnits="userSpaceOnUse" x="0" y="0" width="115" height="20">
<path d="M115 0H0V20H115V0Z" fill="white"/>
</mask>
<g mask="url(#mask0_65_2)">
<path d="M21.554 -0.160156H0V20.292H21.554V-0.160156ZM44.6788 -0.160156H23.1248V20.292H44.6788V-0.160156ZM68.0283 -0.160156H46.476V20.292H68.0301V-0.160156H68.0283ZM91.1549 -0.160156H69.6009V20.292H91.1549V-0.160156Z" fill="#00B67A"/>
<path d="M114.504 -0.160156H92.9512V20.292H114.504V-0.160156Z" fill="#666666"/>
<path d="M92.9512 -0.160156H103.728V20.0793H92.9512V-0.160156Z" fill="#00B67A"/>
<path d="M10.5526 13.4741L13.9197 12.6223L15.2676 16.6698L10.5526 13.4741ZM18.1863 8.3611H12.3489L10.5526 3.24805L8.75628 8.3611H3.14355L7.85855 11.5567L6.06224 16.6698L10.7772 13.4741L13.6959 11.5567L18.1863 8.3611ZM33.9029 13.4741L37.2691 12.6223L38.6161 16.6698L33.9011 13.4741H33.9029ZM41.3111 8.3611H35.4737L33.6774 3.24805L31.882 8.3611H26.0437L30.7596 11.5567L28.9624 16.6698L33.6783 13.4741L36.5961 11.5567L41.3111 8.3611ZM57.2524 13.4741L60.6204 12.6223L61.9674 16.6698L57.2524 13.4741ZM64.6614 8.3611H58.8241L57.0277 3.24805L55.2314 8.3611H49.3941L54.1099 11.5567L52.5374 16.6698L57.2524 13.4741L60.1711 11.5567L64.6614 8.3611ZM80.3781 13.4741L83.7452 12.6223L85.0922 16.6698L80.3781 13.4741ZM88.0118 8.3611H82.1735L80.3781 3.24805L78.5818 8.3611H72.7444L77.4585 11.5567L75.6631 16.6698L80.3781 13.4741L83.2968 11.5567L88.0118 8.3611ZM103.728 13.4741L107.096 12.6223L108.443 16.6698L103.728 13.4741ZM111.137 8.3611H105.299L103.503 3.24805L101.931 8.3611H96.0939L100.809 11.5567L99.0125 16.6698L103.728 13.4741L106.646 11.5567L111.137 8.3611Z" fill="white"/>
</g>
</g>
<defs>
<clipPath id="clip0_65_2">
<rect width="115" height="20" fill="white"/>
</clipPath>
</defs>
</svg>
