<svg width="18" height="18" viewBox="0 0 18 18" fill="none" xmlns="http://www.w3.org/2000/svg">
                    <path d="M7.41386 1.18828C7.44253 1.18803 7.47121 1.18778 7.50075 1.18752C8.7027 1.17949 8.7027 1.17949 9.28222 1.30089C9.31719 1.30806 9.35215 1.31523 9.38817 1.32262C10.5743 1.57212 11.6688 2.0598 12.6221 2.8126C12.6553 2.83866 12.6886 2.86472 12.7229 2.89157C12.9158 3.04572 13.0886 3.20575 13.2524 3.39076C13.3211 3.45533 13.3211 3.45533 13.4074 3.43646C13.5029 3.40971 13.5786 3.37487 13.6654 3.3269C13.6969 3.30978 13.7285 3.29266 13.761 3.27503C13.7948 3.25657 13.8287 3.23811 13.8635 3.2191C15.0119 2.60852 16.5985 1.93539 17.9307 2.07432C18.001 2.14464 18.001 2.14464 18.0229 2.27867C18.021 2.35519 18.021 2.35519 18.001 2.42589C17.9477 2.47331 17.9477 2.47331 17.8775 2.51336C17.8519 2.52818 17.8262 2.543 17.7998 2.55826C17.6751 2.62584 17.5495 2.69122 17.4231 2.75548C16.3653 3.305 15.3245 3.97284 14.415 4.7462C14.4388 4.78542 14.4388 4.78542 14.463 4.82544C15.2155 6.10276 15.6268 7.47403 15.6235 8.95836C15.6235 8.98977 15.6235 9.02119 15.6235 9.05355C15.6222 9.59691 15.5831 10.1195 15.4697 10.6524C15.4633 10.6827 15.4569 10.713 15.4503 10.7442C15.3034 11.4115 15.0572 12.0566 14.7314 12.6564C14.7129 12.6913 14.7129 12.6913 14.694 12.7269C14.347 13.3787 13.9026 13.949 13.3955 14.4845C13.3647 14.5172 13.3339 14.5499 13.3021 14.5836C13.0587 14.8349 12.7964 15.0489 12.5166 15.2579C12.4865 15.2807 12.4865 15.2807 12.4557 15.3039C12.1618 15.5254 11.8568 15.7157 11.532 15.8886C11.4866 15.9127 11.4414 15.9371 11.3964 15.9618C10.7393 16.3217 10.0163 16.5575 9.28222 16.6993C9.25438 16.705 9.22655 16.7107 9.19787 16.7166C7.4774 17.0573 5.61037 16.7186 4.0791 15.8907C4.05805 15.8795 4.03701 15.8683 4.01533 15.8567C3.3881 15.5199 2.83693 15.0782 2.32128 14.5899C2.28856 14.5591 2.25584 14.5283 2.22213 14.4966C1.97087 14.2532 1.75767 13.9902 1.54785 13.711C1.52288 13.6785 1.49791 13.6459 1.47218 13.6123C0.59166 12.4389 0.00662622 10.8928 -0.00740494 9.42006C-0.00774766 9.39014 -0.00809038 9.36023 -0.00844349 9.32941C-0.0145649 8.65619 -0.00492467 8.00813 0.141597 7.34776C0.147993 7.31809 0.154388 7.28843 0.160978 7.25786C0.309278 6.58952 0.553874 5.94501 0.879878 5.34385C0.891871 5.32114 0.903863 5.29843 0.916219 5.27504C1.41631 4.32867 2.13251 3.45846 2.98925 2.8126C3.00767 2.79872 3.02609 2.78484 3.04506 2.77053C4.28631 1.84204 5.84824 1.19736 7.41386 1.18828ZM4.11425 4.04307C4.08076 4.06732 4.04727 4.09156 4.01277 4.11654C3.49702 4.5154 3.02702 5.00743 2.67285 5.55479C2.65921 5.57559 2.64557 5.59639 2.63151 5.61783C1.73237 7.00412 1.41918 8.66531 1.7478 10.2855C2.08976 11.8521 3.05684 13.2798 4.40045 14.1587C5.82841 15.0706 7.5098 15.4093 9.17456 15.0426C10.2475 14.7906 11.2177 14.2913 12.0059 13.5175C12.0598 13.4647 12.1144 13.4127 12.1692 13.3607C13.2546 12.3182 13.9474 10.7511 13.9932 9.2462C13.9946 9.20179 13.996 9.15737 13.9974 9.11162C14.0215 7.95918 13.7182 6.86965 13.1494 5.8712C13.0463 5.86051 13.0463 5.86051 12.9889 5.91335C12.9692 5.93311 12.9496 5.95287 12.9294 5.97323C12.9069 5.99555 12.8845 6.01787 12.8614 6.04087C12.8374 6.06536 12.8133 6.08986 12.7885 6.1151C12.7635 6.14018 12.7385 6.16526 12.7127 6.19111C12.6596 6.24442 12.6067 6.29786 12.5538 6.35142C12.4737 6.43263 12.3932 6.51346 12.3127 6.59424C12.2611 6.64617 12.2095 6.69813 12.1579 6.7501C12.1222 6.78599 12.1222 6.78599 12.0858 6.82261C11.93 6.98072 11.7825 7.14436 11.6377 7.3126C11.6009 7.35449 11.5641 7.39633 11.5273 7.43812C11.2726 7.72861 11.0274 8.02434 10.7939 8.33214C10.7752 8.35677 10.7565 8.38141 10.7373 8.40679C9.82988 9.60764 9.00502 10.9264 8.44918 12.3296C8.43372 12.3684 8.41825 12.4072 8.40231 12.4472C8.37286 12.522 8.34412 12.5971 8.31622 12.6726C8.21851 12.9222 8.21851 12.9222 8.0854 13.0006C7.97119 13.0086 7.93498 12.9988 7.84082 12.9376C7.80027 12.874 7.80027 12.874 7.76776 12.7967C7.7492 12.7538 7.7492 12.7538 7.73027 12.71C7.71745 12.6793 7.70462 12.6485 7.6914 12.6168C7.66343 12.5523 7.63537 12.4878 7.60722 12.4233C7.59328 12.3912 7.57934 12.3591 7.56497 12.3261C7.47743 12.1284 7.37912 11.9362 7.28015 11.7441C7.24124 11.6682 7.203 11.592 7.16474 11.5158C6.76993 10.7382 6.29081 9.99586 5.69532 9.35606C5.62959 9.28525 5.56733 9.21244 5.50512 9.13853C5.25202 8.85099 4.95899 8.63097 4.6462 8.41352C4.15362 8.07015 4.15362 8.07015 4.04394 7.80479C3.99429 7.43132 4.05628 7.07958 4.28564 6.77647C4.51976 6.53125 4.90384 6.36214 5.23925 6.32823C5.26608 6.32537 5.29291 6.32252 5.32055 6.31958C5.85551 6.29129 6.31752 6.58411 6.70489 6.92405C7.23677 7.40852 7.66349 7.97528 8.05175 8.57823C8.16665 8.53993 8.17853 8.5264 8.2425 8.43115C8.25866 8.40755 8.27482 8.38395 8.29147 8.35964C8.31747 8.32101 8.31747 8.32101 8.34399 8.2816C8.75409 7.68686 9.20805 7.12597 9.69476 6.59231C9.73776 6.54464 9.78057 6.49675 9.8221 6.44778C10.0116 6.22558 10.217 6.01974 10.4234 5.81337C10.4859 5.75078 10.5481 5.68792 10.6103 5.62504C10.8224 5.41194 11.0364 5.2103 11.2727 5.02396C11.3585 4.95549 11.44 4.88367 11.5212 4.80992C11.6592 4.68567 11.8034 4.57332 11.9541 4.46495C11.8174 4.2847 11.6659 4.15998 11.4817 4.02989C11.4536 4.0099 11.4255 3.9899 11.3965 3.9693C9.1937 2.42179 6.28599 2.45201 4.11425 4.04307Z" fill="#10C581"></path>
                    <path d="M17.9291 2.07422C17.9994 2.14454 17.9994 2.14454 18.0214 2.27857C18.0195 2.35509 18.0195 2.35509 17.9994 2.42579C17.9462 2.47321 17.9462 2.47321 17.876 2.51326C17.8503 2.52808 17.8247 2.5429 17.7983 2.55816C17.6736 2.62574 17.548 2.69112 17.4215 2.75538C16.4046 3.28368 15.3855 3.9201 14.5117 4.66535C14.4135 4.7461 14.4135 4.7461 14.3259 4.79856C14.2149 4.8653 14.1198 4.94712 14.0224 5.03174C13.9857 5.06337 13.949 5.09495 13.9122 5.1265C13.8931 5.14298 13.8739 5.15946 13.8542 5.17643C13.8019 5.22043 13.749 5.26365 13.6956 5.30632C13.464 5.4917 13.2506 5.68816 13.0418 5.8987C13.0102 5.93036 12.9786 5.96202 12.946 5.99464C12.8797 6.061 12.8135 6.12742 12.7474 6.19397C12.6635 6.27849 12.5794 6.36278 12.4951 6.44699C12.4136 6.52853 12.3322 6.61023 12.2508 6.69191C12.221 6.72177 12.1912 6.75162 12.1605 6.78238C11.9905 6.95369 11.8281 7.12913 11.6713 7.3125C11.6346 7.3544 11.5978 7.39624 11.5609 7.43802C11.3062 7.72851 11.0611 8.02424 10.8276 8.33204C10.8088 8.35667 10.7901 8.38131 10.7709 8.40669C9.86155 9.61011 9.04782 10.9265 8.48156 12.3283C8.45812 12.3863 8.45812 12.3863 8.43421 12.4454C8.40447 12.5198 8.37529 12.5945 8.34675 12.6694C8.33346 12.7029 8.32016 12.7365 8.30647 12.7711C8.28945 12.8155 8.28945 12.8155 8.27208 12.8609C8.21295 12.9592 8.15322 12.9947 8.05021 13.043C7.94474 13.0364 7.94474 13.0364 7.83927 12.9727C7.79732 12.9046 7.79732 12.9046 7.75688 12.8197C7.74169 12.788 7.72651 12.7563 7.71087 12.7237C7.6468 12.5849 7.58378 12.4457 7.52129 12.3063C7.30251 11.8202 7.05819 11.3557 6.78459 10.8984C6.76682 10.8687 6.74906 10.8389 6.73075 10.8082C6.41901 10.2902 6.07123 9.79853 5.65821 9.35569C5.59428 9.28666 5.53479 9.21544 5.47502 9.14283C5.22079 8.85312 4.91083 8.62578 4.59172 8.41333C4.35167 8.25323 4.11647 8.08274 4.00724 7.80469C3.96437 7.41333 4.02067 7.07165 4.26652 6.75879C4.5102 6.50509 4.8876 6.32837 5.23771 6.29297C5.26454 6.29012 5.29137 6.28726 5.31901 6.28432C5.85794 6.25582 6.32329 6.5522 6.7105 6.89774C6.79533 6.97587 6.87789 7.0561 6.96037 7.13672C6.99368 7.16738 6.99368 7.16738 7.02766 7.19866C7.40034 7.54926 7.74935 8.02479 8.00297 8.46923C8.01856 8.49356 8.03415 8.5179 8.05021 8.54297C8.07341 8.54297 8.09662 8.54297 8.12052 8.54297C8.18482 8.45774 8.24532 8.37203 8.30509 8.2837C8.71653 7.68861 9.17063 7.12666 9.65806 6.59221C9.70087 6.54475 9.74349 6.49709 9.78478 6.4483C9.97891 6.2204 10.1901 6.00979 10.4017 5.79825C10.4668 5.73312 10.5315 5.66771 10.5963 5.60228C10.8128 5.38472 11.0308 5.1779 11.2723 4.98787C11.3565 4.92062 11.436 4.84981 11.5153 4.77686C11.6751 4.63381 11.8453 4.51447 12.0229 4.39454C12.0741 4.35928 12.1252 4.32399 12.1764 4.28865C12.4383 4.10803 12.7009 3.92841 12.9677 3.75513C13.0241 3.71849 13.0241 3.71849 13.0817 3.68111C13.1726 3.62726 13.2596 3.58649 13.3588 3.55079C13.3588 3.52758 13.3588 3.50438 13.3588 3.48047C14.6727 2.7739 16.3905 1.91376 17.9291 2.07422Z" fill="#10C581"></path>
                  </svg>
